# xmcd
#
# Track frame offsets: 
#        150
#        14232
#        26490
#        42187
#        57584
#        68488
#        103918
#        121409
#        130854
#        139813
#        156391
#        171625
#        187416
#        202064
#
# Disc length: 2962 seconds
#
# Revision: 0
# Processed by: cddbd v1.5.2PL0 Copyright (c) Steve Scherf et al.
# Submitted via: ExactAudioCopy v1.3
#
DISCID=e00b900e
DTITLE=Big Ed Sullivan - Big
DYEAR=1999
DGENRE=Blues Rock, Electric Blues
TTITLE0=What You Say And What You Do
TTITLE1=Fly Straight Baby
TTITLE2=Slack Mama
TTITLE3=No Good At All
TTITLE4=All Night Baby
TTITLE5=Don't Wanna Sleep
TTITLE6=One Or Two Things
TTITLE7=In The Grave
TTITLE8=Pony Blues
TTITLE9=Haunted House
TTITLE10=Scratch My Back
TTITLE11=Just Once
TTITLE12=Wedding Ring
TTITLE13=Roy The Psycho Cowboy
EXTD=
EXTT0=
EXTT1=
EXTT2=
EXTT3=
EXTT4=
EXTT5=
EXTT6=
EXTT7=
EXTT8=
EXTT9=
EXTT10=
EXTT11=
EXTT12=
EXTT13=
PLAYORDER=
